<mxfile host="app.diagrams.net" modified="2021-05-24T15:31:22.518Z" agent="5.0 (Macintosh; Intel Mac OS X 10_15_4) AppleWebKit/537.36 (KHTML, like Gecko) Chrome/90.0.4430.85 Safari/537.36" etag="ua593-rhY6ntbG_JskOJ" version="14.6.13" type="github" pages="2">
  <diagram id="vtQ01sztWmCrGbH8WjkW" name="基础">
    <mxGraphModel dx="890" dy="1152" grid="1" gridSize="10" guides="1" tooltips="1" connect="1" arrows="1" fold="1" page="1" pageScale="1" pageWidth="3300" pageHeight="4681" math="0" shadow="0">
      <root>
        <mxCell id="0" />
        <mxCell id="1" parent="0" />
        <mxCell id="wr5jNnSVcQE8fxkFvGMQ-31" value="" style="rounded=0;whiteSpace=wrap;html=1;" vertex="1" parent="1">
          <mxGeometry x="760" y="800" width="360" height="120" as="geometry" />
        </mxCell>
        <mxCell id="wr5jNnSVcQE8fxkFvGMQ-40" style="edgeStyle=none;rounded=0;orthogonalLoop=1;jettySize=auto;html=1;exitX=0.5;exitY=0;exitDx=0;exitDy=0;entryX=0.5;entryY=0;entryDx=0;entryDy=0;" edge="1" parent="1" source="wr5jNnSVcQE8fxkFvGMQ-31" target="wr5jNnSVcQE8fxkFvGMQ-29">
          <mxGeometry relative="1" as="geometry" />
        </mxCell>
        <mxCell id="wr5jNnSVcQE8fxkFvGMQ-45" value="①" style="edgeLabel;html=1;align=center;verticalAlign=middle;resizable=0;points=[];" vertex="1" connectable="0" parent="wr5jNnSVcQE8fxkFvGMQ-40">
          <mxGeometry x="0.1" y="-2" relative="1" as="geometry">
            <mxPoint as="offset" />
          </mxGeometry>
        </mxCell>
        <mxCell id="wr5jNnSVcQE8fxkFvGMQ-41" style="edgeStyle=none;rounded=0;orthogonalLoop=1;jettySize=auto;html=1;exitX=0.5;exitY=0;exitDx=0;exitDy=0;entryX=0.5;entryY=0;entryDx=0;entryDy=0;" edge="1" parent="1" source="wr5jNnSVcQE8fxkFvGMQ-31" target="wr5jNnSVcQE8fxkFvGMQ-30">
          <mxGeometry relative="1" as="geometry" />
        </mxCell>
        <mxCell id="wr5jNnSVcQE8fxkFvGMQ-46" value="②" style="edgeLabel;html=1;align=center;verticalAlign=middle;resizable=0;points=[];" vertex="1" connectable="0" parent="wr5jNnSVcQE8fxkFvGMQ-41">
          <mxGeometry x="-0.09" y="-1" relative="1" as="geometry">
            <mxPoint as="offset" />
          </mxGeometry>
        </mxCell>
        <mxCell id="hmNShiNEGyLMiF2ggFaA-4" style="rounded=0;orthogonalLoop=1;jettySize=auto;html=1;exitX=0.5;exitY=1;exitDx=0;exitDy=0;" edge="1" parent="1" source="hmNShiNEGyLMiF2ggFaA-1" target="hmNShiNEGyLMiF2ggFaA-2">
          <mxGeometry relative="1" as="geometry" />
        </mxCell>
        <mxCell id="hmNShiNEGyLMiF2ggFaA-5" style="rounded=0;orthogonalLoop=1;jettySize=auto;html=1;exitX=0.5;exitY=1;exitDx=0;exitDy=0;" edge="1" parent="1" source="hmNShiNEGyLMiF2ggFaA-1" target="hmNShiNEGyLMiF2ggFaA-3">
          <mxGeometry relative="1" as="geometry" />
        </mxCell>
        <mxCell id="hmNShiNEGyLMiF2ggFaA-1" value="IO" style="rounded=0;whiteSpace=wrap;html=1;" vertex="1" parent="1">
          <mxGeometry x="140" y="80" width="120" height="40" as="geometry" />
        </mxCell>
        <mxCell id="hmNShiNEGyLMiF2ggFaA-2" value="BIO" style="rounded=0;whiteSpace=wrap;html=1;" vertex="1" parent="1">
          <mxGeometry x="40" y="200" width="120" height="40" as="geometry" />
        </mxCell>
        <mxCell id="hmNShiNEGyLMiF2ggFaA-3" value="NIO" style="rounded=0;whiteSpace=wrap;html=1;" vertex="1" parent="1">
          <mxGeometry x="240" y="200" width="120" height="40" as="geometry" />
        </mxCell>
        <mxCell id="wr5jNnSVcQE8fxkFvGMQ-7" style="edgeStyle=none;rounded=0;orthogonalLoop=1;jettySize=auto;html=1;exitX=1;exitY=0.25;exitDx=0;exitDy=0;entryX=0;entryY=0.25;entryDx=0;entryDy=0;" edge="1" parent="1" source="wr5jNnSVcQE8fxkFvGMQ-2" target="wr5jNnSVcQE8fxkFvGMQ-3">
          <mxGeometry relative="1" as="geometry" />
        </mxCell>
        <mxCell id="wr5jNnSVcQE8fxkFvGMQ-9" value="读取" style="edgeLabel;html=1;align=center;verticalAlign=middle;resizable=0;points=[];" vertex="1" connectable="0" parent="wr5jNnSVcQE8fxkFvGMQ-7">
          <mxGeometry relative="1" as="geometry">
            <mxPoint as="offset" />
          </mxGeometry>
        </mxCell>
        <mxCell id="wr5jNnSVcQE8fxkFvGMQ-2" value="channel" style="rounded=0;whiteSpace=wrap;html=1;" vertex="1" parent="1">
          <mxGeometry x="640" y="440" width="120" height="40" as="geometry" />
        </mxCell>
        <mxCell id="wr5jNnSVcQE8fxkFvGMQ-8" style="edgeStyle=none;rounded=0;orthogonalLoop=1;jettySize=auto;html=1;exitX=0;exitY=0.75;exitDx=0;exitDy=0;entryX=1;entryY=0.75;entryDx=0;entryDy=0;" edge="1" parent="1" source="wr5jNnSVcQE8fxkFvGMQ-3" target="wr5jNnSVcQE8fxkFvGMQ-2">
          <mxGeometry relative="1" as="geometry" />
        </mxCell>
        <mxCell id="wr5jNnSVcQE8fxkFvGMQ-10" value="写入" style="edgeLabel;html=1;align=center;verticalAlign=middle;resizable=0;points=[];" vertex="1" connectable="0" parent="wr5jNnSVcQE8fxkFvGMQ-8">
          <mxGeometry x="0.025" y="-2" relative="1" as="geometry">
            <mxPoint x="2" as="offset" />
          </mxGeometry>
        </mxCell>
        <mxCell id="wr5jNnSVcQE8fxkFvGMQ-3" value="buffer" style="rounded=0;whiteSpace=wrap;html=1;" vertex="1" parent="1">
          <mxGeometry x="840" y="440" width="120" height="40" as="geometry" />
        </mxCell>
        <mxCell id="wr5jNnSVcQE8fxkFvGMQ-5" style="edgeStyle=none;rounded=0;orthogonalLoop=1;jettySize=auto;html=1;exitX=0.5;exitY=1;exitDx=0;exitDy=0;entryX=0.5;entryY=0;entryDx=0;entryDy=0;" edge="1" parent="1" source="wr5jNnSVcQE8fxkFvGMQ-4" target="wr5jNnSVcQE8fxkFvGMQ-2">
          <mxGeometry relative="1" as="geometry" />
        </mxCell>
        <mxCell id="wr5jNnSVcQE8fxkFvGMQ-4" value="数据的双向通道" style="text;html=1;strokeColor=none;fillColor=none;align=center;verticalAlign=middle;whiteSpace=wrap;rounded=0;" vertex="1" parent="1">
          <mxGeometry x="640" y="360" width="120" height="40" as="geometry" />
        </mxCell>
        <mxCell id="wr5jNnSVcQE8fxkFvGMQ-12" style="edgeStyle=none;rounded=0;orthogonalLoop=1;jettySize=auto;html=1;exitX=0.5;exitY=0;exitDx=0;exitDy=0;entryX=0.5;entryY=1;entryDx=0;entryDy=0;" edge="1" parent="1" source="wr5jNnSVcQE8fxkFvGMQ-11" target="wr5jNnSVcQE8fxkFvGMQ-2">
          <mxGeometry relative="1" as="geometry" />
        </mxCell>
        <mxCell id="wr5jNnSVcQE8fxkFvGMQ-13" value="Text" style="edgeLabel;html=1;align=center;verticalAlign=middle;resizable=0;points=[];" vertex="1" connectable="0" parent="wr5jNnSVcQE8fxkFvGMQ-12">
          <mxGeometry relative="1" as="geometry">
            <mxPoint as="offset" />
          </mxGeometry>
        </mxCell>
        <mxCell id="wr5jNnSVcQE8fxkFvGMQ-35" style="edgeStyle=none;rounded=0;orthogonalLoop=1;jettySize=auto;html=1;exitX=1;exitY=1;exitDx=0;exitDy=0;entryX=0;entryY=0;entryDx=0;entryDy=0;shape=link;" edge="1" parent="1" source="wr5jNnSVcQE8fxkFvGMQ-11" target="wr5jNnSVcQE8fxkFvGMQ-31">
          <mxGeometry relative="1" as="geometry" />
        </mxCell>
        <mxCell id="wr5jNnSVcQE8fxkFvGMQ-11" value="复用器" style="rounded=0;whiteSpace=wrap;html=1;" vertex="1" parent="1">
          <mxGeometry x="640" y="560" width="120" height="40" as="geometry" />
        </mxCell>
        <mxCell id="wr5jNnSVcQE8fxkFvGMQ-23" style="edgeStyle=none;rounded=0;orthogonalLoop=1;jettySize=auto;html=1;exitX=0.5;exitY=1;exitDx=0;exitDy=0;entryX=0.5;entryY=0;entryDx=0;entryDy=0;" edge="1" parent="1" source="wr5jNnSVcQE8fxkFvGMQ-15" target="wr5jNnSVcQE8fxkFvGMQ-16">
          <mxGeometry relative="1" as="geometry" />
        </mxCell>
        <mxCell id="wr5jNnSVcQE8fxkFvGMQ-42" value="①" style="edgeLabel;html=1;align=center;verticalAlign=middle;resizable=0;points=[];" vertex="1" connectable="0" parent="wr5jNnSVcQE8fxkFvGMQ-23">
          <mxGeometry x="-0.025" relative="1" as="geometry">
            <mxPoint as="offset" />
          </mxGeometry>
        </mxCell>
        <mxCell id="wr5jNnSVcQE8fxkFvGMQ-15" value="thread" style="rounded=0;whiteSpace=wrap;html=1;" vertex="1" parent="1">
          <mxGeometry x="280" y="720" width="120" height="40" as="geometry" />
        </mxCell>
        <mxCell id="wr5jNnSVcQE8fxkFvGMQ-16" value="socket" style="rounded=0;whiteSpace=wrap;html=1;" vertex="1" parent="1">
          <mxGeometry x="280" y="840" width="120" height="40" as="geometry" />
        </mxCell>
        <mxCell id="wr5jNnSVcQE8fxkFvGMQ-24" style="edgeStyle=none;rounded=0;orthogonalLoop=1;jettySize=auto;html=1;exitX=0.5;exitY=1;exitDx=0;exitDy=0;entryX=0.5;entryY=0;entryDx=0;entryDy=0;" edge="1" parent="1" source="wr5jNnSVcQE8fxkFvGMQ-18" target="wr5jNnSVcQE8fxkFvGMQ-20">
          <mxGeometry relative="1" as="geometry" />
        </mxCell>
        <mxCell id="wr5jNnSVcQE8fxkFvGMQ-43" value="①" style="edgeLabel;html=1;align=center;verticalAlign=middle;resizable=0;points=[];" vertex="1" connectable="0" parent="wr5jNnSVcQE8fxkFvGMQ-24">
          <mxGeometry x="0.025" relative="1" as="geometry">
            <mxPoint as="offset" />
          </mxGeometry>
        </mxCell>
        <mxCell id="wr5jNnSVcQE8fxkFvGMQ-25" style="edgeStyle=none;rounded=0;orthogonalLoop=1;jettySize=auto;html=1;exitX=0.5;exitY=1;exitDx=0;exitDy=0;entryX=0.5;entryY=0;entryDx=0;entryDy=0;dashed=1;" edge="1" parent="1" source="wr5jNnSVcQE8fxkFvGMQ-18" target="wr5jNnSVcQE8fxkFvGMQ-21">
          <mxGeometry relative="1" as="geometry" />
        </mxCell>
        <mxCell id="wr5jNnSVcQE8fxkFvGMQ-44" value="②" style="edgeLabel;html=1;align=center;verticalAlign=middle;resizable=0;points=[];" vertex="1" connectable="0" parent="wr5jNnSVcQE8fxkFvGMQ-25">
          <mxGeometry x="0.0125" y="1" relative="1" as="geometry">
            <mxPoint as="offset" />
          </mxGeometry>
        </mxCell>
        <mxCell id="wr5jNnSVcQE8fxkFvGMQ-18" value="thread" style="rounded=0;whiteSpace=wrap;html=1;" vertex="1" parent="1">
          <mxGeometry x="520" y="720" width="120" height="40" as="geometry" />
        </mxCell>
        <mxCell id="wr5jNnSVcQE8fxkFvGMQ-20" value="socket" style="rounded=0;whiteSpace=wrap;html=1;" vertex="1" parent="1">
          <mxGeometry x="440" y="840" width="120" height="40" as="geometry" />
        </mxCell>
        <mxCell id="wr5jNnSVcQE8fxkFvGMQ-21" value="socket" style="rounded=0;whiteSpace=wrap;html=1;" vertex="1" parent="1">
          <mxGeometry x="600" y="840" width="120" height="40" as="geometry" />
        </mxCell>
        <mxCell id="wr5jNnSVcQE8fxkFvGMQ-32" style="edgeStyle=none;rounded=0;orthogonalLoop=1;jettySize=auto;html=1;exitX=0.5;exitY=1;exitDx=0;exitDy=0;entryX=0.5;entryY=0;entryDx=0;entryDy=0;" edge="1" parent="1" source="wr5jNnSVcQE8fxkFvGMQ-28" target="wr5jNnSVcQE8fxkFvGMQ-31">
          <mxGeometry relative="1" as="geometry" />
        </mxCell>
        <mxCell id="wr5jNnSVcQE8fxkFvGMQ-47" value="③" style="edgeLabel;html=1;align=center;verticalAlign=middle;resizable=0;points=[];" vertex="1" connectable="0" parent="wr5jNnSVcQE8fxkFvGMQ-32">
          <mxGeometry x="-0.15" y="-1" relative="1" as="geometry">
            <mxPoint as="offset" />
          </mxGeometry>
        </mxCell>
        <mxCell id="wr5jNnSVcQE8fxkFvGMQ-28" value="thread" style="rounded=0;whiteSpace=wrap;html=1;" vertex="1" parent="1">
          <mxGeometry x="880" y="720" width="120" height="40" as="geometry" />
        </mxCell>
        <mxCell id="wr5jNnSVcQE8fxkFvGMQ-29" value="socket" style="rounded=0;whiteSpace=wrap;html=1;" vertex="1" parent="1">
          <mxGeometry x="800" y="840" width="120" height="40" as="geometry" />
        </mxCell>
        <mxCell id="wr5jNnSVcQE8fxkFvGMQ-30" value="socket" style="rounded=0;whiteSpace=wrap;html=1;" vertex="1" parent="1">
          <mxGeometry x="960" y="840" width="120" height="40" as="geometry" />
        </mxCell>
        <mxCell id="wr5jNnSVcQE8fxkFvGMQ-39" value="每个线程在同一时刻只能做一件事情，所以每个 thread 在某一时刻只能获取到一个对象的消息&lt;br&gt;复用器的原理是复用器在轮训每个 socket，收集有消息的对象，然后等待 thread 发起获取请求时全部发送" style="rounded=0;whiteSpace=wrap;html=1;" vertex="1" parent="1">
          <mxGeometry x="280" y="960" width="690" height="140" as="geometry" />
        </mxCell>
      </root>
    </mxGraphModel>
  </diagram>
  <diagram id="E_9Kuw1ZDNIQDEp0Eqoe" name="Page-2">
    <mxGraphModel dx="890" dy="1152" grid="1" gridSize="10" guides="1" tooltips="1" connect="1" arrows="1" fold="1" page="1" pageScale="1" pageWidth="3300" pageHeight="4681" math="0" shadow="0">
      <root>
        <mxCell id="TxqH6cJ-eY6QyFiwBsPc-0" />
        <mxCell id="TxqH6cJ-eY6QyFiwBsPc-1" parent="TxqH6cJ-eY6QyFiwBsPc-0" />
      </root>
    </mxGraphModel>
  </diagram>
</mxfile>
